<?xml version="1.0" encoding="utf-8"?>
<!-- Generator: Adobe Illustrator 26.0.2, SVG Export Plug-In . SVG Version: 6.00 Build 0)  -->
<svg version="1.1" id="圖層_1" xmlns="http://www.w3.org/2000/svg" xmlns:xlink="http://www.w3.org/1999/xlink" x="0px" y="0px"
	 viewBox="0 0 27.7 27.7" style="enable-background:new 0 0 27.7 27.7;" xml:space="preserve">
<path id="Icon_ionic-logo-whatsapp" d="M14.1,0C6.6,0,0.5,6,0.5,13.5c0,2.5,0.7,4.9,2,7L0,27.7l7.5-2.4c6.6,3.6,14.9,1.2,18.5-5.4
	c1.1-2,1.7-4.2,1.7-6.4C27.7,6,21.6,0,14.1,0C14.1,0,14.1,0,14.1,0z M20.9,18.6c-0.5,0.8-1.4,1.4-2.4,1.6c-0.6,0-0.7,0.5-4.1-1
	S8.8,14,8.6,13.7c-0.8-1.1-1.2-2.3-1.3-3.6C7.3,9,7.8,8,8.6,7.3C8.9,7,9.2,6.9,9.6,6.9c0.3,0,0.5,0,0.7,0s0.5,0,0.8,0.7
	s0.9,2.4,1,2.6c0.1,0.2,0.1,0.4,0,0.6c-0.1,0.2-0.2,0.4-0.4,0.6c-0.2,0.2-0.4,0.4-0.5,0.6c-0.2,0.2-0.4,0.3-0.2,0.7
	c0.5,0.9,1.1,1.7,1.8,2.5c0.8,0.8,1.7,1.4,2.7,1.8c0.3,0.2,0.5,0.2,0.8-0.1s0.9-1,1.2-1.3s0.5-0.3,0.8-0.1s2,1,2.3,1.2
	s0.6,0.3,0.6,0.4C21.2,17.6,21.1,18.1,20.9,18.6z"/>
</svg>
