<?xml version="1.0" encoding="utf-8"?>
<!-- Generator: Adobe Illustrator 26.0.2, SVG Export Plug-In . SVG Version: 6.00 Build 0)  -->
<svg version="1.1" id="Layer_1" xmlns="http://www.w3.org/2000/svg" xmlns:xlink="http://www.w3.org/1999/xlink" x="0px" y="0px"
	 viewBox="0 0 24 24" style="enable-background:new 0 0 24 24;" xml:space="preserve">
<g>
	<path d="M5.9,22.6H1.4V7.4h4.6V22.6z M22.6,22.6h-4.6v-8.1c0-2.1-0.8-3.2-2.2-3.2c-1.2,0-1.9,0.6-2.3,1.8c0,1.9,0,9.5,0,9.5H9
		C9,22.6,9,9,9,7.4h3.6l0.3,3h0.1c0.9-1.5,2.4-2.5,4.5-2.5c1.6,0,2.8,0.4,3.8,1.5c1,1.1,1.4,2.6,1.4,4.6V22.6z"/>
</g>
<g>
	<ellipse cx="3.7" cy="3.6" rx="2.4" ry="2.3"/>
</g>
</svg>
