<?xml version="1.0" encoding="utf-8"?>
<!-- Generator: Adobe Illustrator 26.0.2, SVG Export Plug-In . SVG Version: 6.00 Build 0)  -->
<svg version="1.1" id="圖層_1" xmlns="http://www.w3.org/2000/svg" xmlns:xlink="http://www.w3.org/1999/xlink" x="0px" y="0px"
	 viewBox="0 0 24.8 20.1" style="enable-background:new 0 0 24.8 20.1;" xml:space="preserve">
<path id="Icon_awesome-twitter" d="M22.2,5c0,0.2,0,0.4,0,0.7c0.1,7.9-6.3,14.4-14.3,14.5c-0.1,0-0.1,0-0.2,0
	c-2.8,0-5.5-0.8-7.8-2.3c0.4,0,0.8,0.1,1.2,0.1c2.3,0,4.5-0.8,6.3-2.2c-2.2,0-4.1-1.5-4.8-3.5c0.3,0.1,0.6,0.1,1,0.1
	c0.5,0,0.9-0.1,1.3-0.2C2.7,11.7,1,9.6,1,7.1V7.1c0.7,0.4,1.5,0.6,2.3,0.6C1.1,6.2,0.4,3.3,1.7,0.9C4.3,4.1,8.1,6,12.2,6.2
	c-0.1-0.4-0.1-0.8-0.1-1.2c0-2.8,2.3-5.1,5.1-5.1c1.4,0,2.8,0.6,3.7,1.6C22,1.4,23.1,1,24.1,0.4c-0.4,1.2-1.2,2.2-2.2,2.8
	c1-0.1,2-0.4,2.9-0.8C24.1,3.4,23.2,4.3,22.2,5z"/>
</svg>
