<?xml version="1.0" encoding="utf-8"?>
<!-- Generator: Adobe Illustrator 26.0.2, SVG Export Plug-In . SVG Version: 6.00 Build 0)  -->
<svg version="1.1" id="圖層_1" xmlns="http://www.w3.org/2000/svg" xmlns:xlink="http://www.w3.org/1999/xlink" x="0px" y="0px"
	 viewBox="0 0 26.1 26.1" style="enable-background:new 0 0 26.1 26.1;" xml:space="preserve">
<path id="Icon_awesome-line" d="M15.9,10v4.2c0,0.1-0.1,0.2-0.2,0.2c0,0,0,0,0,0H15c-0.1,0-0.1,0-0.2-0.1L13,11.7v2.5
	c0,0.1-0.1,0.2-0.2,0.2c0,0,0,0,0,0h-0.7c-0.1,0-0.2-0.1-0.2-0.2c0,0,0,0,0,0v-4.1c0-0.1,0.1-0.2,0.2-0.2c0,0,0,0,0,0h0.7
	c0.1,0,0.1,0,0.2,0.1l1.9,2.6v-2.5c0-0.1,0.1-0.2,0.2-0.2c0,0,0,0,0,0h0.7C15.8,9.9,15.9,9.9,15.9,10C15.9,10,15.9,10,15.9,10
	L15.9,10z M11.1,9.9h-0.7c-0.1,0-0.2,0.1-0.2,0.2c0,0,0,0,0,0v4.1c0,0.1,0.1,0.2,0.2,0.2c0,0,0,0,0,0h0.7c0.1,0,0.2-0.1,0.2-0.2
	c0,0,0,0,0,0V10C11.3,9.9,11.2,9.9,11.1,9.9L11.1,9.9z M9.5,13.3H7.7V10c0-0.1-0.1-0.2-0.2-0.2c0,0,0,0,0,0H6.8
	c-0.1,0-0.2,0.1-0.2,0.2c0,0,0,0,0,0v4.2c0,0,0,0.1,0.1,0.1c0,0,0.1,0.1,0.1,0.1h2.7c0.1,0,0.2-0.1,0.2-0.2c0,0,0,0,0,0v-0.7
	C9.7,13.4,9.6,13.3,9.5,13.3L9.5,13.3z M19.4,9.9h-2.7c-0.1,0-0.2,0.1-0.2,0.2v4.1c0,0.1,0.1,0.2,0.2,0.2h2.7c0.1,0,0.2-0.1,0.2-0.2
	c0,0,0,0,0,0v-0.7c0-0.1-0.1-0.2-0.2-0.2c0,0,0,0,0,0h-1.8v-0.7h1.8c0.1,0,0.2-0.1,0.2-0.2c0,0,0,0,0,0v-0.7c0-0.1-0.1-0.2-0.2-0.2
	c0,0,0,0,0,0h-1.8v-0.7h1.8c0.1,0,0.2-0.1,0.2-0.2c0,0,0,0,0,0V10C19.6,9.9,19.5,9.9,19.4,9.9L19.4,9.9z M26.1,4.8v16.7
	c0,2.6-2.1,4.7-4.8,4.7H4.7C2.1,26.1,0,24,0,21.4V4.7C0,2.1,2.1,0,4.8,0h16.7C24,0,26.2,2.1,26.1,4.8L26.1,4.8z M22.5,11.9
	c0-4.3-4.3-7.7-9.5-7.7s-9.5,3.5-9.5,7.7c0,3.8,3.4,7,8,7.6c1.1,0.2,1,0.6,0.7,2.1c0,0.2-0.2,0.9,0.8,0.5c2.8-1.5,5.3-3.3,7.5-5.5
	C21.8,15.4,22.5,13.7,22.5,11.9L22.5,11.9z"/>
</svg>
